<svg id="visual" viewBox="0 0 450 900" width="450" height="900" xmlns="http://www.w3.org/2000/svg" xmlns:xlink="http://www.w3.org/1999/xlink" version="1.1"><rect x="0" y="0" width="450" height="900" fill="#ff3336"></rect><path d="M0 146L9.3 139.3C18.7 132.7 37.3 119.3 56.2 115.3C75 111.3 94 116.7 112.8 118.8C131.7 121 150.3 120 169 123C187.7 126 206.3 133 225 132.7C243.7 132.3 262.3 124.7 281.2 123.3C300 122 319 127 337.8 128.5C356.7 130 375.3 128 394 130.3C412.7 132.7 431.3 139.3 440.7 142.7L450 146L450 0L440.7 0C431.3 0 412.7 0 394 0C375.3 0 356.7 0 337.8 0C319 0 300 0 281.2 0C262.3 0 243.7 0 225 0C206.3 0 187.7 0 169 0C150.3 0 131.7 0 112.8 0C94 0 75 0 56.2 0C37.3 0 18.7 0 9.3 0L0 0Z" fill="#c6282b"></path><path d="M0 92L9.3 91.5C18.7 91 37.3 90 56.2 89.7C75 89.3 94 89.7 112.8 89.5C131.7 89.3 150.3 88.7 169 92C187.7 95.3 206.3 102.7 225 104.2C243.7 105.7 262.3 101.3 281.2 100.7C300 100 319 103 337.8 101.8C356.7 100.7 375.3 95.3 394 92C412.7 88.7 431.3 87.3 440.7 86.7L450 86L450 0L440.7 0C431.3 0 412.7 0 394 0C375.3 0 356.7 0 337.8 0C319 0 300 0 281.2 0C262.3 0 243.7 0 225 0C206.3 0 187.7 0 169 0C150.3 0 131.7 0 112.8 0C94 0 75 0 56.2 0C37.3 0 18.7 0 9.3 0L0 0Z" fill="#942127"></path><path d="M0 79L9.3 76.5C18.7 74 37.3 69 56.2 67.8C75 66.7 94 69.3 112.8 71.7C131.7 74 150.3 76 169 76.8C187.7 77.7 206.3 77.3 225 75.7C243.7 74 262.3 71 281.2 70C300 69 319 70 337.8 73.5C356.7 77 375.3 83 394 83.7C412.7 84.3 431.3 79.7 440.7 77.3L450 75L450 0L440.7 0C431.3 0 412.7 0 394 0C375.3 0 356.7 0 337.8 0C319 0 300 0 281.2 0C262.3 0 243.7 0 225 0C206.3 0 187.7 0 169 0C150.3 0 131.7 0 112.8 0C94 0 75 0 56.2 0C37.3 0 18.7 0 9.3 0L0 0Z" fill="#631b1f"></path><path d="M0 40L9.3 41C18.7 42 37.3 44 56.2 44.8C75 45.7 94 45.3 112.8 47.8C131.7 50.3 150.3 55.7 169 57.5C187.7 59.3 206.3 57.7 225 55.2C243.7 52.7 262.3 49.3 281.2 48.3C300 47.3 319 48.7 337.8 50.8C356.7 53 375.3 56 394 56.2C412.7 56.3 431.3 53.7 440.7 52.3L450 51L450 0L440.7 0C431.3 0 412.7 0 394 0C375.3 0 356.7 0 337.8 0C319 0 300 0 281.2 0C262.3 0 243.7 0 225 0C206.3 0 187.7 0 169 0C150.3 0 131.7 0 112.8 0C94 0 75 0 56.2 0C37.3 0 18.7 0 9.3 0L0 0Z" fill="#351315"></path><path d="M0 40L9.3 39.7C18.7 39.3 37.3 38.7 56.2 36C75 33.3 94 28.7 112.8 29C131.7 29.3 150.3 34.7 169 36.3C187.7 38 206.3 36 225 32.8C243.7 29.7 262.3 25.3 281.2 24.2C300 23 319 25 337.8 26.8C356.7 28.7 375.3 30.3 394 30.5C412.7 30.7 431.3 29.3 440.7 28.7L450 28L450 0L440.7 0C431.3 0 412.7 0 394 0C375.3 0 356.7 0 337.8 0C319 0 300 0 281.2 0C262.3 0 243.7 0 225 0C206.3 0 187.7 0 169 0C150.3 0 131.7 0 112.8 0C94 0 75 0 56.2 0C37.3 0 18.7 0 9.3 0L0 0Z" fill="#040101"></path></svg>