<svg id="visual" viewBox="0 0 450 900" width="450" height="900" xmlns="http://www.w3.org/2000/svg" xmlns:xlink="http://www.w3.org/1999/xlink" version="1.1"><rect x="0" y="0" width="450" height="900" fill="#ff3336"></rect><path d="M249 0L249.3 18.8C249.7 37.7 250.3 75.3 246.5 112.8C242.7 150.3 234.3 187.7 224.7 225.2C215 262.7 204 300.3 197 337.8C190 375.3 187 412.7 196 450.2C205 487.7 226 525.3 235.3 562.8C244.7 600.3 242.3 637.7 240.2 675.2C238 712.7 236 750.3 235.7 787.8C235.3 825.3 236.7 862.7 237.3 881.3L238 900L0 900L0 881.3C0 862.7 0 825.3 0 787.8C0 750.3 0 712.7 0 675.2C0 637.7 0 600.3 0 562.8C0 525.3 0 487.7 0 450.2C0 412.7 0 375.3 0 337.8C0 300.3 0 262.7 0 225.2C0 187.7 0 150.3 0 112.8C0 75.3 0 37.7 0 18.8L0 0Z" fill="#c6282b"></path><path d="M230 0L221.2 18.8C212.3 37.7 194.7 75.3 186.3 112.8C178 150.3 179 187.7 176.7 225.2C174.3 262.7 168.7 300.3 170.5 337.8C172.3 375.3 181.7 412.7 187.3 450.2C193 487.7 195 525.3 190.5 562.8C186 600.3 175 637.7 176.5 675.2C178 712.7 192 750.3 199 787.8C206 825.3 206 862.7 206 881.3L206 900L0 900L0 881.3C0 862.7 0 825.3 0 787.8C0 750.3 0 712.7 0 675.2C0 637.7 0 600.3 0 562.8C0 525.3 0 487.7 0 450.2C0 412.7 0 375.3 0 337.8C0 300.3 0 262.7 0 225.2C0 187.7 0 150.3 0 112.8C0 75.3 0 37.7 0 18.8L0 0Z" fill="#9e2228"></path><path d="M152 0L148.2 18.8C144.3 37.7 136.7 75.3 135.7 112.8C134.7 150.3 140.3 187.7 144.2 225.2C148 262.7 150 300.3 151.3 337.8C152.7 375.3 153.3 412.7 148.8 450.2C144.3 487.7 134.7 525.3 140.3 562.8C146 600.3 167 637.7 176 675.2C185 712.7 182 750.3 178.7 787.8C175.3 825.3 171.7 862.7 169.8 881.3L168 900L0 900L0 881.3C0 862.7 0 825.3 0 787.8C0 750.3 0 712.7 0 675.2C0 637.7 0 600.3 0 562.8C0 525.3 0 487.7 0 450.2C0 412.7 0 375.3 0 337.8C0 300.3 0 262.7 0 225.2C0 187.7 0 150.3 0 112.8C0 75.3 0 37.7 0 18.8L0 0Z" fill="#761e22"></path><path d="M103 0L100.7 18.8C98.3 37.7 93.7 75.3 100.7 112.8C107.7 150.3 126.3 187.7 130.2 225.2C134 262.7 123 300.3 121.7 337.8C120.3 375.3 128.7 412.7 131.2 450.2C133.7 487.7 130.3 525.3 131.8 562.8C133.3 600.3 139.7 637.7 138 675.2C136.3 712.7 126.7 750.3 117.2 787.8C107.7 825.3 98.3 862.7 93.7 881.3L89 900L0 900L0 881.3C0 862.7 0 825.3 0 787.8C0 750.3 0 712.7 0 675.2C0 637.7 0 600.3 0 562.8C0 525.3 0 487.7 0 450.2C0 412.7 0 375.3 0 337.8C0 300.3 0 262.7 0 225.2C0 187.7 0 150.3 0 112.8C0 75.3 0 37.7 0 18.8L0 0Z" fill="#50181b"></path><path d="M98 0L97.8 18.8C97.7 37.7 97.3 75.3 96.7 112.8C96 150.3 95 187.7 94.7 225.2C94.3 262.7 94.7 300.3 95.8 337.8C97 375.3 99 412.7 97.7 450.2C96.3 487.7 91.7 525.3 88 562.8C84.3 600.3 81.7 637.7 82.3 675.2C83 712.7 87 750.3 83.5 787.8C80 825.3 69 862.7 63.5 881.3L58 900L0 900L0 881.3C0 862.7 0 825.3 0 787.8C0 750.3 0 712.7 0 675.2C0 637.7 0 600.3 0 562.8C0 525.3 0 487.7 0 450.2C0 412.7 0 375.3 0 337.8C0 300.3 0 262.7 0 225.2C0 187.7 0 150.3 0 112.8C0 75.3 0 37.7 0 18.8L0 0Z" fill="#2d1212"></path><path d="M25 0L26.5 18.8C28 37.7 31 75.3 31.8 112.8C32.7 150.3 31.3 187.7 33 225.2C34.7 262.7 39.3 300.3 45.5 337.8C51.7 375.3 59.3 412.7 59.5 450.2C59.7 487.7 52.3 525.3 47.7 562.8C43 600.3 41 637.7 37.8 675.2C34.7 712.7 30.3 750.3 32.3 787.8C34.3 825.3 42.7 862.7 46.8 881.3L51 900L0 900L0 881.3C0 862.7 0 825.3 0 787.8C0 750.3 0 712.7 0 675.2C0 637.7 0 600.3 0 562.8C0 525.3 0 487.7 0 450.2C0 412.7 0 375.3 0 337.8C0 300.3 0 262.7 0 225.2C0 187.7 0 150.3 0 112.8C0 75.3 0 37.7 0 18.8L0 0Z" fill="#040101"></path></svg>